<svg version="1.1" viewBox="0.0 0.0 960.0 540.0" fill="none" stroke="none" stroke-linecap="square" stroke-miterlimit="10" xmlns:xlink="http://www.w3.org/1999/xlink" xmlns="http://www.w3.org/2000/svg"><clipPath id="p.0"><path d="m0 0l960.0 0l0 540.0l-960.0 0l0 -540.0z" clip-rule="nonzero"/></clipPath><g clip-path="url(#p.0)"><path fill="#000000" fill-opacity="0.0" d="m0 0l960.0 0l0 540.0l-960.0 0z" fill-rule="evenodd"/><path fill="#ffdd00" d="m934.1155 270.0l0 0c0 -313.49768 125.91724 -567.6378 281.24414 -567.6378l0 0c74.590576 0 146.1261 59.80452 198.8695 166.25725c52.74353 106.45274 82.37451 250.83363 82.37451 401.38055l0 0c0 313.49768 -125.91724 567.6378 -281.24402 567.6378l0 0c-155.3269 0 -281.24414 -254.14014 -281.24414 -567.6378z" fill-rule="evenodd"/><path fill="#ffdd00" d="m0 188.47244l196.7559 0l0 351.52756l-196.7559 0z" fill-rule="evenodd"/><g filter="url(#shadowFilter-p.1)"><use xlink:href="#p.1" transform="matrix(1.0 0.0 0.0 1.0 0.0 2.0)"/></g><defs><filter id="shadowFilter-p.1" filterUnits="userSpaceOnUse"><feGaussianBlur in="SourceAlpha" stdDeviation="2.0" result="blur"/><feComponentTransfer in="blur" color-interpolation-filters="sRGB"><feFuncR type="linear" slope="0" intercept="0.0"/><feFuncG type="linear" slope="0" intercept="0.0"/><feFuncB type="linear" slope="0" intercept="0.0"/><feFuncA type="linear" slope="0.5" intercept="0"/></feComponentTransfer></filter></defs><g id="p.1"><path fill="#ffdd00" d="m29.152231 251.0643l0 0c0 -13.298325 10.78042 -24.078735 24.078741 -24.078735l0 0c6.386078 0 12.510597 2.5368652 17.026237 7.0525055c4.5156403 4.5156403 7.052498 10.640152 7.052498 17.02623l0 0c0 13.29834 -10.780418 24.078735 -24.078735 24.078735l0 0c-13.298321 0 -24.078741 -10.7803955 -24.078741 -24.078735z" fill-rule="evenodd"/></g><g filter="url(#shadowFilter-p.2)"><use xlink:href="#p.2" transform="matrix(1.0 0.0 0.0 1.0 0.0 2.0)"/></g><defs><filter id="shadowFilter-p.2" filterUnits="userSpaceOnUse"><feGaussianBlur in="SourceAlpha" stdDeviation="2.0" result="blur"/><feComponentTransfer in="blur" color-interpolation-filters="sRGB"><feFuncR type="linear" slope="0" intercept="0.0"/><feFuncG type="linear" slope="0" intercept="0.0"/><feFuncB type="linear" slope="0" intercept="0.0"/><feFuncA type="linear" slope="0.5" intercept="0"/></feComponentTransfer></filter></defs><g id="p.2"><path fill="#ffdd00" d="m119.4462 251.0643l0 0c0 -13.298325 10.780411 -24.078735 24.078735 -24.078735l0 0c6.386078 0 12.510605 2.5368652 17.026245 7.0525055c4.5156403 4.5156403 7.05249 10.640152 7.05249 17.02623l0 0c0 13.29834 -10.780411 24.078735 -24.078735 24.078735l0 0c-13.298325 0 -24.078735 -10.7803955 -24.078735 -24.078735z" fill-rule="evenodd"/></g><g filter="url(#shadowFilter-p.3)"><use xlink:href="#p.3" transform="matrix(1.0 0.0 0.0 1.0 0.0 2.0)"/></g><defs><filter id="shadowFilter-p.3" filterUnits="userSpaceOnUse"><feGaussianBlur in="SourceAlpha" stdDeviation="2.0" result="blur"/><feComponentTransfer in="blur" color-interpolation-filters="sRGB"><feFuncR type="linear" slope="0" intercept="0.0"/><feFuncG type="linear" slope="0" intercept="0.0"/><feFuncB type="linear" slope="0" intercept="0.0"/><feFuncA type="linear" slope="0.5" intercept="0"/></feComponentTransfer></filter></defs><g id="p.3"><path fill="#ffdd00" d="m29.152231 364.2362l0 0c0 -13.298309 10.78042 -24.078735 24.078741 -24.078735l0 0c6.386078 0 12.510597 2.5368652 17.026237 7.0525208c4.5156403 4.515625 7.052498 10.640137 7.052498 17.026215l0 0c0 13.29834 -10.780418 24.078766 -24.078735 24.078766l0 0c-13.298321 0 -24.078741 -10.780426 -24.078741 -24.078766z" fill-rule="evenodd"/></g><g filter="url(#shadowFilter-p.4)"><use xlink:href="#p.4" transform="matrix(1.0 0.0 0.0 1.0 0.0 2.0)"/></g><defs><filter id="shadowFilter-p.4" filterUnits="userSpaceOnUse"><feGaussianBlur in="SourceAlpha" stdDeviation="2.0" result="blur"/><feComponentTransfer in="blur" color-interpolation-filters="sRGB"><feFuncR type="linear" slope="0" intercept="0.0"/><feFuncG type="linear" slope="0" intercept="0.0"/><feFuncB type="linear" slope="0" intercept="0.0"/><feFuncA type="linear" slope="0.5" intercept="0"/></feComponentTransfer></filter></defs><g id="p.4"><path fill="#ffdd00" d="m119.4462 364.2362l0 0c0 -13.298309 10.780411 -24.078735 24.078735 -24.078735l0 0c6.386078 0 12.510605 2.5368652 17.026245 7.0525208c4.5156403 4.515625 7.05249 10.640137 7.05249 17.026215l0 0c0 13.29834 -10.780411 24.078766 -24.078735 24.078766l0 0c-13.298325 0 -24.078735 -10.780426 -24.078735 -24.078766z" fill-rule="evenodd"/></g><g filter="url(#shadowFilter-p.5)"><use xlink:href="#p.5" transform="matrix(1.0 0.0 0.0 1.0 0.0 2.0)"/></g><defs><filter id="shadowFilter-p.5" filterUnits="userSpaceOnUse"><feGaussianBlur in="SourceAlpha" stdDeviation="2.0" result="blur"/><feComponentTransfer in="blur" color-interpolation-filters="sRGB"><feFuncR type="linear" slope="0" intercept="0.0"/><feFuncG type="linear" slope="0" intercept="0.0"/><feFuncB type="linear" slope="0" intercept="0.0"/><feFuncA type="linear" slope="0.5" intercept="0"/></feComponentTransfer></filter></defs><g id="p.5"><path fill="#ffdd00" d="m29.152231 477.40814l0 0c0 -13.29834 10.78042 -24.078735 24.078741 -24.078735l0 0c6.386078 0 12.510597 2.5368347 17.026237 7.05249c4.5156403 4.515625 7.052498 10.640167 7.052498 17.026245l0 0c0 13.298309 -10.780418 24.078735 -24.078735 24.078735l0 0c-13.298321 0 -24.078741 -10.780426 -24.078741 -24.078735z" fill-rule="evenodd"/></g><g filter="url(#shadowFilter-p.6)"><use xlink:href="#p.6" transform="matrix(1.0 0.0 0.0 1.0 0.0 2.0)"/></g><defs><filter id="shadowFilter-p.6" filterUnits="userSpaceOnUse"><feGaussianBlur in="SourceAlpha" stdDeviation="2.0" result="blur"/><feComponentTransfer in="blur" color-interpolation-filters="sRGB"><feFuncR type="linear" slope="0" intercept="0.0"/><feFuncG type="linear" slope="0" intercept="0.0"/><feFuncB type="linear" slope="0" intercept="0.0"/><feFuncA type="linear" slope="0.5" intercept="0"/></feComponentTransfer></filter></defs><g id="p.6"><path fill="#ffdd00" d="m119.4462 477.40814l0 0c0 -13.29834 10.780411 -24.078735 24.078735 -24.078735l0 0c6.386078 0 12.510605 2.5368347 17.026245 7.05249c4.5156403 4.515625 7.05249 10.640167 7.05249 17.026245l0 0c0 13.298309 -10.780411 24.078735 -24.078735 24.078735l0 0c-13.298325 0 -24.078735 -10.780426 -24.078735 -24.078735z" fill-rule="evenodd"/></g></g></svg>