<svg version="1.1" viewBox="0.0 0.0 121.01837270341207 253.6955380577428" fill="none" stroke="none" stroke-linecap="square" stroke-miterlimit="10" xmlns:xlink="http://www.w3.org/1999/xlink" xmlns="http://www.w3.org/2000/svg"><clipPath id="p.0"><path d="m0 0l121.01837 0l0 253.69554l-121.01837 0l0 -253.69554z" clip-rule="nonzero"/></clipPath><g clip-path="url(#p.0)"><path fill="#000000" fill-opacity="0.0" d="m0 0l121.01837 0l0 253.69554l-121.01837 0z" fill-rule="evenodd"/><path fill="#ffdd00" d="m83.27034 -9.918635l0 0c0 -40.816887 34.174423 -73.90552 76.3307 -73.90552l0 0c20.244171 0 39.65918 7.7864532 53.97397 21.646427c14.314789 13.85997 22.35675 32.658127 22.35675 52.259087l0 0c0 40.816887 -34.174423 73.90551 -76.33072 73.90551l0 0c-42.15628 0 -76.3307 -33.088623 -76.3307 -73.90551z" fill-rule="evenodd"/><path fill="#ffdd00" d="m-105.01837 272.5433l0 0c0 -40.81688 34.174423 -73.9055 76.3307 -73.9055l0 0c20.244164 0 39.659176 7.786438 53.97396 21.646423c14.314785 13.85997 22.356747 32.658127 22.356747 52.25908l0 0c0 40.816895 -34.174423 73.90552 -76.3307 73.90552l0 0c-42.156284 0 -76.3307 -33.088623 -76.3307 -73.90552z" fill-rule="evenodd"/></g></svg>