<svg version="1.1" viewBox="0.0 0.0 960.0 540.0" fill="none" stroke="none" stroke-linecap="square" stroke-miterlimit="10" xmlns:xlink="http://www.w3.org/1999/xlink" xmlns="http://www.w3.org/2000/svg"><clipPath id="p.0"><path d="m0 0l960.0 0l0 540.0l-960.0 0l0 -540.0z" clip-rule="nonzero"/></clipPath><g clip-path="url(#p.0)"><path fill="#000000" fill-opacity="0.0" d="m0 0l960.0 0l0 540.0l-960.0 0z" fill-rule="evenodd"/><path fill="#ffdd00" d="m-284.45145 571.66144l0 0c0 -136.32303 115.44003 -246.83466 257.84253 -246.83466l0 0c68.38409 0 133.96735 26.005707 182.32219 72.29617c48.354843 46.290497 75.520325 109.07385 75.520325 174.53848l0 0c0 136.323 -115.44003 246.8346 -257.84253 246.8346l0 0c-142.4025 0 -257.84253 -110.5116 -257.84253 -246.8346z" fill-rule="evenodd"/><path fill="#ffdd00" d="m934.1155 270.0l0 0c0 -313.49768 125.91724 -567.6378 281.24414 -567.6378l0 0c74.590576 0 146.1261 59.80452 198.8695 166.25725c52.74353 106.45274 82.37451 250.83363 82.37451 401.38055l0 0c0 313.49768 -125.91724 567.6378 -281.24402 567.6378l0 0c-155.3269 0 -281.24414 -254.14014 -281.24414 -567.6378z" fill-rule="evenodd"/></g></svg>