<svg id="Ebene_1" data-name="Ebene 1" xmlns="http://www.w3.org/2000/svg" viewBox="0 0 1754.31 2834.65"><defs><style>.cls-1{fill:#010101;}</style></defs><path d="M1758.49,477c7.86-125.52-32.06-243.66-60-363.54-1.81-7.78-5.84-16.87-15.11-19.91-7.12-2.33-11.11-13.29-19.46-9.4-7.76,3.62-6.27,13.23-6,20.38.32,9.59-2,21.88-11.88,15.47-16.84-11-28.83-10.46-43.42,1.94-4.15,3.53-11.64-.24-13.55-6.73-11.12-37.87-55-53.78-62.71-94.12-1.52-7.95-9.94-12.65-17.2-13.7-37.32-5.38-74.7-16.18-111.2,6.12-11.4,7-25.74,15.15-40.67,7.79-43.26-21.34-75.94,6.43-99,31.81-36.24,39.83-80.74,63.74-126.58,86.29-76.89,37.83-132.75,87.35-122.11,182.92,1.79,16.11.27,32.6.27,48.91,0,23.81-13,48.59-3.38,70.68,8.63,19.75,7.94,38.65,8.88,58.39,3.51,73.53,9.62,146.09,68.68,200.84,6.76,6.26,9.66,16.48,15.69,23.74,28,33.79,65.47,53.46,112.21,39.1,16.55-5.08,33.28-6.65,50.63-7,45.62-1,91.42,7.52,136.19,4.31,51.94-3.72,104.17,11.86,155.49-3.1,13.29-1.11,27.26,0,39.75-3.74,35.81-10.81,71.24-23,106.4-35.8,30.4-11.08,41-30.31,42.74-63,.8-15-5.55-28.34-2.4-44.46C1749.34,566.91,1755.67,521.94,1758.49,477Zm-468-406.77c10.51.06,21,0,31.53,0,36.9-1.94,73.54-6.55,110.69-6.59,25.56,0,50.64,5.59,76,3.58,6.93-.55,10.1,5.28,8.94,7.55-6,11.83,2.34,29.6-16.27,36.37-27.29,9.94-55.51,16.14-83.87,11.18-35.82-6.26-71.65-5.73-107.41-4.84-27.07.68-26.69-18.93-31.22-35.36C1276.68,73.9,1282.4,70.18,1290.5,70.23Zm391.81,452.15c-3.65,31.4-13.59,62-18.7,93.33-8.88,54.52-54.55,70.64-104.07,77.76C1486.16,704,1411.64,707.9,1338.45,707c-48.73-.58-102.51,2.66-148.58-16.67-29.7-12.45-63.34-31.74-70.77-71.64-1.34-7.23-4.9-14.5-9-20.68-18.14-27.17-27.14-56.53-21.63-100.09,3.32-11.64-6.06-32.68-8.75-54.23-5.85-47,17.15-89.23,19.35-134.7.41-8.42,7.57-12.91,14.41-16.72,32.13-17.87,59.88-39.62,70.15-77.38,5.43-19.95,23.16-24.29,39.48-27.67,70.77-14.67,141.14-10.56,211.08,6.71,23.81,5.88,47.83,11,71.93,15.58,8.33,1.58,17.2.39,25.83.4,13.23,0,25.28-21.14,36-9.7,23.37,25,58.11,36.91,76.73,64.61,10,14.85,7,38.12,13.69,57.33,11.18,32,18.91,65.53,26.4,98.24C1692.1,452.61,1686.25,488.54,1682.31,522.38Z" transform="translate(-540.17 0)"/><path class="cls-1" d="M951,887.48c-1.66-7.47-.24-16.4-9.85-18.2-8.07-1.51-10.34,6.43-14.35,11.74-12.77,17-22.66,36.21-49.87,36.09-11.66-.05-24.36,9.9-33.51,20.25-3.7,4.19-11.3,9.8-6.64,13.9,17.59,15.43,1.46,28-3.27,40-7,17.56-18,33.54-27.65,50-5.3,9-8.88,17.93,2.6,24.31,13.14,7.32,18.08-4.37,19.35-12.53,3.15-20.28,14.41-15.93,26.71-11.09,15.4,6.06,28.57,21.35,22.93,33.34-9.68,20.56-.77,36.19,3.11,53.72,2.65,12,7.6,23.43,6.22,36.33-5.94,55.6-24.33,108.44-36.15,162.74-9.61,44.14-31.11,86.16-32.71,131.51-1.44,40.58-7.83,80.83-6.77,121.49.34,13.09-6.87,24-13.37,34.3-5.63,9-14.36,13.89-22.29,1.25-7.55-12-13.56-9.16-16.43,2.36-2.29,9.2.7,20.81-15.93,12.74-8.87-4.3-21.35,1.36-17.45-19.32,1.77-9.42,5.12-23.55.12-37.31-13.74-37.88-19.53-77.22-4.71-117.19,4.15-11.19,7.34-24.69,5.09-35.95-10.05-50.17,5.5-97.87,12.33-146.28,2.06-14.56,10.56-30-10.09-34.35-18.4-3.83-40-5.58-45.06,21.34-3.54,18.65-3.11,38.41-8.94,56.21-22.7,69.37-8.32,141.37-17.31,211.48-3.89,30.41,8.84,65.55-21,90.17-22.45,18.51-39.83,40.52-45.6,69.78a54,54,0,0,1-14.4,27.24c-31.52,32.79-39.36,72.3-34.68,108.46,0,20.7-.57,34.17.14,47.57.9,17.12,1.42,40.07,13.84,47.5,20.47,12.23,24,28.24,28.51,47.92,4.92,21.56,54.73,42.93,68.4,30,11.05-10.47,13.15-33.67,37-21.49,1.31-3.29,4.33-7,3.66-9.81-5.75-24.5-2.22-49.84-11.61-74.59-11.57-30.51-7.68-63.39,12.09-90.1,15.93-21.52,34.88,3.84,51.48,2.13,42-4.34,21.07,23.24,17.23,35.42-3.15,10-12.34,20.77-18.21,30.73-16.83,28.61-27.77,61.25-17.9,94.44,4.86,16.34,11.42,31.35,10.13,48.95-1,13.51,3.08,13.07,16.93,9.57,36.78-9.29,61.34-34.06,86.13-58.92s60.79-42.28,63.51-82.51c2.51-37.08.63-74.46.5-111.7,0-10.07-7.49-11.41-15.46-13.27-18.47-4.31-28.68-15.8-23.95-35.36,6.57-27.22-1.09-54.08-.43-81.12.58-23.63,11.64-44.66,11.39-69.38-.44-43.47,2.29-88.12,12.23-130.27,15.51-65.82,16.83-133.12,27.9-199.35,13.78-82.4,26.58-165.25,32-248.89C949.19,958.14,959,923.25,951,887.48Zm-88.43,949.93c-11.28,19.32-7.31,41.65-21,60.26a229.45,229.45,0,0,1-33.79,36.68c-9,7.92-14.68,10.92-25.28.42-9.44-9.35-14.16-14.38-6.94-28.34,11.2-21.65,19.13-45.09,27.27-68.18,7.32-20.74-1.17-33.71-18.79-47.62-34.87-27.53-74-20.12-112.36-20.32-18-.09-36,29.82-36.82,59-.66,23.93.15,47.89-.33,71.83-.13,6.86,3.88,16.88-6.84,19.11-8.47,1.77-14.08-5.47-18.5-11.55-12.9-17.73-12-39.37-15.1-59.67-1.73-11.23-.31-22.94-.31-37.41,3.94-15.31-9.34-37.67,5.57-51.84,23.43-22.25,51.32-37.94,86.36-36.48,32.91,1.38,66,1.8,98.87-.27C827.36,1720.36,890.09,1790.31,862.59,1837.41Z" transform="translate(-540.17 0)"/><path class="cls-1" d="M2270.88,1704.39c-18.16-47.07-52.29-87.21-55.18-141.17-2.11-39.35-8.47-79-17.58-117.33-20.76-87.39-32.75-178.52-94.72-250.47-4.32-19.82-20.77-31.24-32.29-46-59.05-75.45-119.38-149.85-183.19-221.39-13.06-14.64-29.15-26.56-38.75-44.45-6.11-11.38-14.47-30.49-26.33-24.82-11.34,5.42-13.18,25.72-8.94,41.43,1.48,5.48,2.34,11.17,4.19,16.53,11.31,32.85,1,70.89,24.23,100.86-.7,34.67,4.54,67.94,23.3,98l.78,11.26-.69,5.82c19.73,24.57,13.93,57.64,28,84.35,3.39,6.44,2.42,17,12.15,15.55,10.76-1.63,4.4-12.47,6.23-19.07,7.42-26.74-14-45.78-18.45-69.36,2.34-6.63-4.46-9.94-5.55-15.32-3.43-3.63-4.69-8-5.2-12.65a26.29,26.29,0,0,0-.59-12.92c-.46-6.9-2.06-13.41-9.27-18l-.11-.1a2.42,2.42,0,0,1-2.14-.09c2,.08,3.57-.18,3.35-2.14,2-17.18-2.22-33.06-8.25-48.55l.06-.05c8.34-6.35,16.78-12.49,27.64-5,3.45,3.16,9.46,6,10,9.53,6.64,46.36,34.5,62.22,78.3,55.48,15.9-2.45,22.16,7.22,27.46,19.4,10.66,24.52,23.13,49.08,49.48,58.76,17.36,6.38,29.48,15.08,36.42,31.66,6.13,20.1,7.83,40.81,10.67,61.53,4,29-3.09,58.59,4.91,86.6,5.67,19.86,9.82,37.88,9.42,59.74-.84,46.15-1.31,91.8-15.17,136-5.58,17.78-6,31.9,5.15,48,10.75,15.53,11.11,28.14-13.86,35-17.74,4.87-36.37.64-53,9.06-20.9,10.63-38.14.7-45.15-16.45-11.12-27.2-23.54-16.43-38.18-6.35-17.49,40.64-11.64,82.81-9.85,125.12.92,21.69,12.26,19.1,26.39,19.15,20.53.07,9.43-14.66,10.18-22,3.45-34.52,31.48-75,64.82-83,40.52-9.65,82.66-10.61,114.89,21.33,20.74,20.56,37.48,45.63,53.59,70.26,26.37,40.31,24.31,70.63-4.11,110.28-5.63,7.86-11.73,18.28-21.94,15.26-12.23-3.62-8.35-18-5.71-24.8,19.58-50.73-12.4-83.31-41.38-114.8-31.32-34-77.61-31.31-101,4.84-22.42,34.59-23,74.85-12.67,113,4.77,17.63,6.7,32.38,2.13,49.57-2,7.69-17.06,20.19,2.4,24.69,14.49,3.36,35.11-1.29,35.5-15.7,1-36.42,21.1-68.54,20.11-104.31-.63-23,15.52-24.85,29.75-26.69,19.4-2.49,16.74,13.58,16.55,25.63-.19,12.28-1.8,24.68-2.63,36.7-1,14.27-5.65,30.08,6.05,45,37.32,47.49,105,42.7,133.85-11C2308,1817.59,2292.58,1760.64,2270.88,1704.39Z" transform="translate(-540.17 0)"/><path class="cls-1" d="M1924.75,1829c-15.82-81.2-12.16-163.86-17.75-245.81-1.21-17.73,9.77-37,6.16-53.7-9-41.68-6-85.06-19.5-125.85a81,81,0,0,0,.41-48c-11-36.67-14.72-74.79-23.6-111.66-9-37.41-12.15-77.16-33.72-110.92-7-19.31-15.2-37.88-19.35-58.5-12.65-62.81-25-125.93-42.7-187.4-17.67-61.26-36.85-73.77-89.51-71.58-23.3,1-46.34,2.32-69.84,1.9-56.24-1-112.86,1.61-169.2,4.44-27.71,1.4-55.91,3.74-83,1.53-35.44-2.91-70.9-4.11-105.78-1.24-59.72,4.9-119.45,7.42-179.28,9.48-26.63.92-54.52-1.84-76.48,18.74h0c-9,18.37-11.65,37.95-9.41,58,5.51,49.22,3.93,98.53-.52,147.5-5,54.9-9.74,110.35-21.81,163.94-11.68,51.9-19.11,104.21-23.7,156.64-6.54,74.65-24.25,147.75-28.45,222.49-1.78,31.61-16.94,65-.39,94.81,27.48,49.43,34.36,103.45,36.56,157.17,3.09,75-13.09,149-30,221.73-13.86,59.69-18.25,119.52-12.55,179.7,2.81,29.61,3.26,59.09,3.9,88.57,1,44,2.17,88.09-.9,132.2-1.5,21.53-4.7,46.19,3.66,64.52,21.43,47,16.62,96.45,21.72,145,3.62,34.46-7.32,68-6.69,102.64.47,26.05,9.33,33.45,33.86,32,72.19-4.15,143.55,11.37,215.74,10.29,54.11-.82,108.25.23,162.37.67,11.75.1,22.27-1.83,21.39-16.33-1.35-22.17,5-43.62,5.39-65.3,1.19-76.45,2.06-153-.13-229.39-1.53-53.34,8.86-105.1,13.39-157.62q7.18-83.35,10.72-167c1.38-33.08,5-66.53,3.88-99.11-2.38-68.06-1-135.48,8.35-202.87,1.21-8.7.51-19.7,11.16-20.24,11.6-.58,15.11,12.06,17,20.44,8.64,38.52,5.35,78.44,11.45,117.15,4.37,27.74-7.74,54.71-2.67,80.74,12.19,62.62-1.53,125.84,7.57,187.93,4.82,33-1.4,64.81-5.5,95.93-5.38,40.89,3.41,82-8.62,122.84-8.77,29.72-13.44,62.54-10.81,93.2,2.86,33.4,1.25,65.75-.5,98.85-2.06,39-2.39,78.17-6.26,117.15-.94,9.5-2,20.88,11,23,24.38,3.89,48.71,8.7,73.78,6.48,95.34-8.44,190.2-23.12,286.25-22.8,26.2.08,52.41-.42,78.6,0,11.17.17,18-1.61,17.88-15.36-.42-77.09,17.41-153.2,12.22-230.67-1.86-27.71.33-55.67-.54-83.48-.51-16.32,10.3-31.32,5.22-47.71-13.27-42.89,3-85.58.24-128.51-4.2-66.17,5.63-132.09,6.09-198.23.15-21.83-1.75-43.43-4.25-65.23-5.23-45.6,2.94-91.94-6.33-137.69-3.47-17.12-1-38.64,15.12-45.43C1936.35,1850.44,1930.93,1841.51,1924.75,1829ZM985.24,1569.34c12.54-28.84,21-59.91,17.63-91.46a154.61,154.61,0,0,1,2.44-50.93c9.65-44,24.33-87.44,30.23-131.37,14.57-108.4,37.5-214.92,60-321.68,9.61-45.55,19.09-52.88,66.37-52.11q71.85,1.17,143.69-2.27c61.27-2.93,121.21-19.7,183.1-16.15a54.6,54.6,0,0,0,37.73-11.9l3.48-3.63c10.43,5.35,21.38.58,31.92-1.19,17.68-3,35.48-3.71,49.45,8.4,21.62,18.73,47.49,28.37,73,39.43,31.7,13.73,52.49,36.66,60.39,71.69,12.69,56.23,13.23,114.93,28.82,169.87,21.45,75.6,38.52,152.48,64.33,226.92,16.27,46.93,18.22,96.38,11.88,145.16-6.55,50.35-28.42,65.45-77.61,66.5-57.58,1.22-114.61-9-172.5-4-51.68,4.47-103.12,8.67-154,19.41-82.19,17.36-166.18,12.8-249.32,17.85-46.14,2.8-94.34,9.18-137.83-16.6-2.64-1.56-5.76-.75-8.54.87a13.79,13.79,0,0,0-3.88-6.15c-14.08-6.38-30-1.2-44.56-8.77C972.65,1602.19,972.13,1599.47,985.24,1569.34Zm235.27,322.22c4.81-9-8.48-27,9.94-27.69,16.83-.67,35.7,6.1,42.37,23.23,11.15,28.65,28.76,56,24.2,89.24-1.14,8.27-.88,16.64,6,24.06,11.62,12.52,9.26,25.48,4,41.77-7.93,24.61,1.7,51.26-2.93,77.64-3.75,21.33,6.3,45.84-20.66,56.79l-.72.28h0c-1.68.65-3.48,1.25-5.44,1.8a11.54,11.54,0,0,0-2.73,1.11c-12.19,3.65-26.16,5.2-36.91,5.83-4.09-1-8.33-2-12.2-1-35.36,9.85-69,0-102.77-8.39-20.69-11.36-43-2.55-64.38-5.08-8.11-.95-20.17,2-18.24-11.22,4-26.9-11.14-47.23-20.57-69.72-5.65-13.5-14.93-26.82-6.68-42.66,3.16-27.14-5-54,.81-82,2.38-11.29-11.5-26.62-19.45-39.18-4.13-6.53-6.72-9.72,1-15.66,32.31-24.87,68.27-29.35,107.39-22.89,36.91,6.1,73.5,14.74,111.12,16h0C1216,1899.81,1218.28,1895.71,1220.51,1891.56Zm-233,391.33c-10.16-6.25-26.89-8.25-19.65-26.47,9.62-24.21,20.66-47.35,51.66-50.41,37.63-3.71,74.6-10.74,112.31,4.64,12.08,4.93,33,8.59,43.57-10.7,11.81-18.14,22.82-4.43,32.64,1.82,7.29,4.64,14.13,8,20.92,7.56h0l.52,0c56.71-3.53,72.78,10.09,77,15.82,8.08,13.89,13.63,29.32,18.68,44.89,2.25,6.93,2.57,15.83.3,22.67-17.61,53.21-13.28,110.71-33,163.62-7.23,19.36,5.93,40.63-1.07,61.33-4.38,13-9.54,20.64-25.34,20.4-42.57-.65-84.63-6-126.49-12.48-29.93-4.61-59.51-10.62-90-11.07-67.73-1-73.05-34.8-67.83-84.25,4.62-43.79,7.15-87.81,10.35-131.75C992.38,2293,993.5,2286.61,987.46,2282.89Zm325.74,448.88c-1.75,3.18-5.85,8.3-7.5,7.82-26.49-7.68-48.63,14.46-71.88,12.47-36.76-3.15-74.55,4-110.68-10-11.19-4.35-24-.86-33.52,10.32-8.57,10-18.23,19.2-30.19,26.05-10.07,5.78-13.51,2.09-16.59-6.61-12.28-34.67-36.48-63.5-47.54-99.13-4.22-13.62-11.47-26-9.41-38.83.31-31.2,20.79-59.5,47.63-69.88,11.36-4.39,11.06-3.4,9.18,8.33-1.58,9.89,8.46,12.22,18.4,10.73,49.14-7.4,98.09-5.83,147.54-.35,25.37,2.81,50.7-2.91,76.94,6.25,38.27,13.35,42.61,15.78,35.52,54.14-1.83,9.9,0,18.94,4.31,27.78C1336.71,2694.19,1323.65,2712.79,1313.2,2731.77Zm223.74-409.55c.34-13.06,3-25.92,11.61-33.41,42.08-36.47,88-62.4,146.91-42.93,6.08,2,13.44,1.46,20,.57,63.66-8.64,75.78-.64,91.31,61.63,4.39,17.59,7.82,35.37,4.58,58.39,4.73,28.94,7.84,62,2,96.38-5.09,30-11.62,45.54-42.26,44.9-62.42-1.29-118.64,21.1-176.19,39.29-8.45,2.67-16,3.75-24.32-1.76-23.66-15.61-45.72-53.65-39-84.57C1541.58,2415.11,1535.74,2368.42,1536.94,2322.22ZM1818,2650.87c.08,71.66-53.1,113.86-123.24,103.48-25.55-3.78-51.9,11.52-78.47-.45a153,153,0,0,0-60.19-13.16c-19.73-.36-25.07-13.08-21.29-28.28,4.09-16.43,8.63-29-1.95-47-12.14-20.67,23.21-82.49,47.33-90.69,37-12.58,72.22-25.42,113.78-7.65,19.94,8.53,48.83,5.32,69.23-17.48,22.53-25.17,34.12-21.79,43.55,10.79A290.2,290.2,0,0,1,1818,2650.87Zm38.17-629.1c-12.78,31.95-16.18,65.34-24.62,97.64a299.38,299.38,0,0,1-30.7,75.56c-6.8,11.74-14.1,15.16-23,.82-14.86-23.87-36.17-19.25-60.15-16.18-27.64,3.54-54.63,16.38-84.63,4.54-28.56-11.27-61.51-7.27-89.83-23.55-13.16-7.57-19.08-14.13-11.41-27.64,24.11-42.49,16.44-85.68,6.13-130.18-7.32-31.61-21.13-63.64-7.07-97.29,2-4.76-.25-14.44,7.5-12.37,40.93,10.94,79-10.72,119.92-8.6,41.17,2.13,82,11.21,124.46,5,25.93-3.8,50.61,17.4,78,22.29,12.67,2.26,9.23,24.92,16.21,34.72C1875,1974.58,1865.21,1999.2,1856.19,2021.77Zm31-257.32c-13.81,37.87-41.12,45.45-80.13,47.22-60.26,2.72-120.83-.79-180.64,5.49-68.08,7.16-135.43,5.38-203.25-.56-37.2-3.26-73.55-12-111.16-13-77.35-1.9-154.46-8.41-231.32-17.4-22.53-2.64-37.79-17.24-43.79-36.61-5.4-17.42,14.94-21.58,25.66-30,3-2.37-1.13.13,2-2.09a48.49,48.49,0,0,0,4.1-10c13.38-7.27,27.38-9.69,42.43-4l5.69.11c22,4,44,6.88,64.83-4.83l-.37.39,32.39.24h0v0a9.27,9.27,0,0,1,4.39-1.55,51.06,51.06,0,0,1-.9,7.13c13,8.2,27.7,5.66,41.88,6.1,122.3,3.76,244.14-7.46,366.21-11.28,29.6-.93,58.74-1.24,88-8.7,23.77-6,49.41-10.87,73.83-8,75,8.9,90,8.17,106.62,74.88a4.62,4.62,0,0,0,1.1,1.72A38.23,38.23,0,0,0,1887.18,1764.45Z" transform="translate(-540.17 0)"/></svg>